<?xml version="1.0" encoding="UTF-8"?>
<svg width="90px" height="61px" viewBox="0 0 90 61" version="1.1" xmlns="http://www.w3.org/2000/svg" xmlns:xlink="http://www.w3.org/1999/xlink">
    <!-- Generator: Sketch 46.2 (44496) - http://www.bohemiancoding.com/sketch -->
    <title>jack</title>
    <desc>Created with Sketch.</desc>
    <defs></defs>
    <g id="Page-1" stroke="none" stroke-width="1" fill="none" fill-rule="evenodd">
        <g id="jack" fill-rule="nonzero" fill="currentColor">
            <path d="M79.9574576,15.1020261 L86.2285782,17.6428751 L90,15.5418004 L90,7.7779452 L86.2391197,5.508143 L79.9574576,8.053263 L79.9574576,5.5687579 L76.1463053,5.5687579 L76.1463053,17.5865313 L79.9574576,17.5865313 L79.9574576,15.1020261 Z M36.91799,5.5687579 C38.3280273,6.33026423 41.7138054,6.33026423 47.0753244,5.5687579 L47.0753244,17.5865313 L36.91799,17.5865313 L36.91799,23.0921837 L22.0431777,23.0921837 C21.9514142,23.0921837 21.7906465,23.0863265 21.5705416,23.0691431 C21.2099148,23.0409893 20.8096386,22.9905098 20.3793484,22.9121275 C19.1503366,22.688249 17.9206152,22.2850351 16.76855,21.6554497 C14.4086381,20.3657952 12.7189658,18.3336002 11.9453003,15.4579273 C7.9306033,16.9765687 6.3398778,20.6843441 6.3398778,27.3139542 C6.3398778,35.1841075 11.5808815,40.007209 20.8183421,41.8185978 C28.9342946,43.4100683 38.9860925,42.1604652 44.4628173,39.2154339 C51.6626128,35.3438458 59.9204543,33.7349554 66.5158891,35.6214457 C74.9539155,38.0349719 79.7767954,45.6409296 79.7767954,57.9168235 C79.7767954,62 73.4369177,62 73.4369177,58 C73.4369177,48.2873062 70.2672574,43.2885706 64.7724133,41.7168819 C59.9840328,40.3472628 53.3356093,41.6425873 47.4654105,44.7992037 C40.6420233,48.4683836 29.1002061,49.9032205 19.5983788,48.0399916 C7.6718018,45.7012895 0,38.6412145 0,27.3139542 C0,17.1627805 3.73985709,10.8474044 11.6837431,8.921969 C12.2771939,5.40102 14.091691,2.9827715 16.76855,1.5199105 C17.9206152,0.8903251 19.1503366,0.4871112 20.3793484,0.2632327 C20.8096386,0.1848504 21.2099148,0.1343709 21.5705416,0.1062171 C21.7906465,0.0890337 21.9514142,0.0831765 22.0431777,0.0831765 L36.91799,0.0831765 C35.5079527,2.97872444 35.5079527,4.80725157 36.91799,5.5687579 Z M59.9871646,5.5687579 L50.3226248,5.5687579 L50.3226248,17.5865313 L59.9871646,17.5865313 L59.9871646,5.5687579 Z M72.8990049,5.5687579 L63.2344651,5.5687579 L63.2344651,17.5865313 L72.8990049,17.5865313 L72.8990049,5.5687579 Z" id="Combined-Shape"></path>
        </g>
    </g>
</svg>