<?xml version="1.0" encoding="UTF-8"?>
<svg width="77px" height="103px" viewBox="0 0 77 103" version="1.1" xmlns="http://www.w3.org/2000/svg" xmlns:xlink="http://www.w3.org/1999/xlink">
    <!-- Generator: Sketch 46.2 (44496) - http://www.bohemiancoding.com/sketch -->
    <title>pedal</title>
    <desc>Created with Sketch.</desc>
    <defs></defs>
    <g id="Page-1" stroke="none" stroke-width="1" fill="none" fill-rule="evenodd">
        <g id="pedal" fill="currentColor">
            <path d="M8,0 L69,0 C73.418278,-8.66006284e-15 77,3.581722 77,8 L77,95 L77,95 C77,99.418278 73.418278,103 69,103 L8,103 C3.581722,103 5.41083001e-16,99.418278 0,95 L0,8 L0,8 C-5.41083001e-16,3.581722 3.581722,8.11624501e-16 8,0 L8,0 Z M6.48507463,68.997985 L6.48507463,92.8234436 C6.48507463,95.0309063 8.27833266,96.8214286 10.4904286,96.8214286 L66.5095714,96.8214286 C68.7187115,96.8214286 70.5149254,95.0314697 70.5149254,92.8234436 L70.5149254,68.997985 C70.5149254,66.7905223 68.7216673,65 66.5095714,65 L10.4904286,65 C8.28128849,65 6.48507463,66.7899589 6.48507463,68.997985 Z M62,18 C65.3137085,18 68,15.3137085 68,12 C68,8.6862915 65.3137085,6 62,6 C58.6862915,6 56,8.6862915 56,12 C56,15.3137085 58.6862915,18 62,18 Z M39,18 C42.3137085,18 45,15.3137085 45,12 C45,8.6862915 42.3137085,6 39,6 C35.6862915,6 33,8.6862915 33,12 C33,15.3137085 35.6862915,18 39,18 Z M15,18 C18.3137085,18 21,15.3137085 21,12 C21,8.6862915 18.3137085,6 15,6 C11.6862915,6 9,8.6862915 9,12 C9,15.3137085 11.6862915,18 15,18 Z M3.5,25 C3.22385763,25 3,25.2238576 3,25.5 C3,25.7761424 3.22385763,26 3.5,26 L73.5,26 C73.7761424,26 74,25.7761424 74,25.5 C74,25.2238576 73.7761424,25 73.5,25 L3.5,25 Z M6.029,37.934 L6.029,39.036 L10.741,39.036 L10.741,51.5 L12.033,51.5 L12.033,39.036 L16.764,39.036 L16.764,37.934 L6.029,37.934 Z M16.061,41.696 L16.061,51.5 L17.258,51.5 L17.258,46.275 C17.258,45.7556641 17.3466658,45.2775022 17.524,44.8405 C17.7013342,44.4034978 17.9514984,44.0266683 18.2745,43.71 C18.5975016,43.3933318 18.9806645,43.1495009 19.424,42.9785 C19.8673356,42.8074991 20.3613306,42.7346665 20.906,42.76 L20.906,41.563 C20.0193289,41.5249998 19.2561699,41.7213312 18.6165,42.152 C17.9768301,42.5826688 17.5050015,43.196996 17.201,43.995 L17.163,43.995 L17.163,41.696 L16.061,41.696 Z M22.407,46.921 L29.95,46.921 C29.9753335,46.2369966 29.9120008,45.5625033 29.76,44.8975 C29.6079992,44.2324967 29.3578351,43.6435026 29.0095,43.1305 C28.6611649,42.6174974 28.2083361,42.2026683 27.651,41.886 C27.0936639,41.5693317 26.4223373,41.411 25.637,41.411 C24.8643295,41.411 24.1961695,41.5598318 23.6325,41.8575 C23.0688305,42.1551682 22.6096684,42.5478309 22.255,43.0355 C21.9003316,43.5231691 21.6375009,44.0773302 21.4665,44.698 C21.2954991,45.3186698 21.21,45.9519968 21.21,46.598 C21.21,47.2946702 21.2954991,47.9564969 21.4665,48.5835 C21.6375009,49.2105031 21.9003316,49.7614976 22.255,50.2365 C22.6096684,50.7115024 23.0688305,51.0851653 23.6325,51.3575 C24.1961695,51.6298347 24.8643295,51.766 25.637,51.766 C26.8783395,51.766 27.8378299,51.462003 28.5155,50.854 C29.1931701,50.245997 29.6586654,49.3846722 29.912,48.27 L28.715,48.27 C28.5249991,49.0300038 28.1830025,49.6379977 27.689,50.094 C27.1949975,50.5500023 26.5110044,50.778 25.637,50.778 C25.0669972,50.778 24.5793354,50.6576679 24.174,50.417 C23.7686646,50.1763321 23.4330013,49.8723352 23.167,49.505 C22.9009987,49.1376648 22.7078339,48.7228356 22.5875,48.2605 C22.4671661,47.7981644 22.407,47.3516688 22.407,46.921 Z M31.565,41.696 L31.565,51.5 L32.762,51.5 L32.762,46.028 C32.762,45.5086641 32.8189994,45.0305022 32.933,44.5935 C33.0470006,44.1564978 33.2211655,43.7765016 33.4555,43.4535 C33.6898345,43.1304984 33.9938315,42.8771676 34.3675,42.6935 C34.7411685,42.5098324 35.1813308,42.418 35.688,42.418 C36.0680019,42.418 36.3909987,42.4813327 36.657,42.608 C36.9230013,42.7346673 37.1351659,42.9088322 37.2935,43.1305 C37.4518341,43.3521678 37.565833,43.6118318 37.6355,43.9095 C37.705167,44.2071682 37.74,44.520665 37.74,44.85 L37.74,51.5 L38.937,51.5 L38.937,45.952 C38.937,45.4959977 38.9781663,45.0558355 39.0605,44.6315 C39.1428337,44.2071645 39.2853323,43.830335 39.488,43.501 C39.6906677,43.171665 39.9629983,42.9088343 40.305,42.7125 C40.6470017,42.5161657 41.0776641,42.418 41.597,42.418 C42.4583376,42.418 43.0599983,42.6301645 43.402,43.0545 C43.7440017,43.4788355 43.915,44.0963293 43.915,44.907 L43.915,51.5 L45.112,51.5 L45.112,44.85 C45.112,42.5573219 44.0290108,41.411 41.863,41.411 C41.2169968,41.411 40.6090028,41.5693318 40.039,41.886 C39.4689971,42.2026683 39.0383348,42.6839968 38.747,43.33 C38.5696658,42.6839968 38.2181693,42.2026683 37.6925,41.886 C37.1668307,41.5693318 36.5810032,41.411 35.935,41.411 C35.136996,41.411 34.4815026,41.5819983 33.9685,41.924 C33.4554974,42.2660017 33.0406682,42.740997 32.724,43.349 L32.667,43.349 L32.667,41.696 L31.565,41.696 Z M51.534,41.411 C50.7866629,41.411 50.1248362,41.5503319 49.5485,41.829 C48.9721638,42.1076681 48.4876686,42.481331 48.095,42.95 C47.7023314,43.418669 47.4046677,43.9664969 47.202,44.5935 C46.9993323,45.2205031 46.898,45.8886631 46.898,46.598 C46.898,47.3073369 46.9993323,47.9754969 47.202,48.6025 C47.4046677,49.2295031 47.7023314,49.777331 48.095,50.246 C48.4876686,50.714669 48.9721638,51.0851653 49.5485,51.3575 C50.1248362,51.6298347 50.7866629,51.766 51.534,51.766 C52.2813371,51.766 52.9431638,51.6298347 53.5195,51.3575 C54.0958362,51.0851653 54.5803314,50.714669 54.973,50.246 C55.3656686,49.777331 55.6633323,49.2295031 55.866,48.6025 C56.0686677,47.9754969 56.17,47.3073369 56.17,46.598 C56.17,45.8886631 56.0686677,45.2205031 55.866,44.5935 C55.6633323,43.9664969 55.3656686,43.418669 54.973,42.95 C54.5803314,42.481331 54.0958362,42.1076681 53.5195,41.829 C52.9431638,41.5503319 52.2813371,41.411 51.534,41.411 Z M57.975,37.934 L57.975,51.5 L59.172,51.5 L59.172,37.934 L57.975,37.934 Z M65.613,41.411 C64.8656629,41.411 64.2038362,41.5503319 63.6275,41.829 C63.0511638,42.1076681 62.5666686,42.481331 62.174,42.95 C61.7813314,43.418669 61.4836677,43.9664969 61.281,44.5935 C61.0783323,45.2205031 60.977,45.8886631 60.977,46.598 C60.977,47.3073369 61.0783323,47.9754969 61.281,48.6025 C61.4836677,49.2295031 61.7813314,49.777331 62.174,50.246 C62.5666686,50.714669 63.0511638,51.0851653 63.6275,51.3575 C64.2038362,51.6298347 64.8656629,51.766 65.613,51.766 C66.3603371,51.766 67.0221638,51.6298347 67.5985,51.3575 C68.1748362,51.0851653 68.6593314,50.714669 69.052,50.246 C69.4446686,49.777331 69.7423323,49.2295031 69.945,48.6025 C70.1476677,47.9754969 70.249,47.3073369 70.249,46.598 C70.249,45.8886631 70.1476677,45.2205031 69.945,44.5935 C69.7423323,43.9664969 69.4446686,43.418669 69.052,42.95 C68.6593314,42.481331 68.1748362,42.1076681 67.5985,41.829 C67.0221638,41.5503319 66.3603371,41.411 65.613,41.411 Z M28.753,45.914 L22.407,45.914 C22.4576669,45.4706645 22.5621659,45.0368355 22.7205,44.6125 C22.8788341,44.1881645 23.0909987,43.8145016 23.357,43.4915 C23.6230013,43.1684984 23.9459981,42.9088343 24.326,42.7125 C24.7060019,42.5161657 25.1429975,42.418 25.637,42.418 C26.1183357,42.418 26.5489981,42.5161657 26.929,42.7125 C27.3090019,42.9088343 27.6319987,43.1684984 27.898,43.4915 C28.1640013,43.8145016 28.3698326,44.1849979 28.5155,44.603 C28.6611674,45.0210021 28.7403333,45.4579977 28.753,45.914 Z M51.534,42.418 C52.1040029,42.418 52.6043312,42.5383321 53.035,42.779 C53.4656688,43.0196679 53.8234986,43.3363314 54.1085,43.729 C54.3935014,44.1216686 54.6088326,44.5681642 54.7545,45.0685 C54.9001674,45.5688358 54.973,46.0786641 54.973,46.598 C54.973,47.1173359 54.9001674,47.6271642 54.7545,48.1275 C54.6088326,48.6278358 54.3935014,49.0743314 54.1085,49.467 C53.8234986,49.8596686 53.4656688,50.1763321 53.035,50.417 C52.6043312,50.6576679 52.1040029,50.778 51.534,50.778 C50.9639972,50.778 50.4636688,50.6576679 50.033,50.417 C49.6023312,50.1763321 49.2445014,49.8596686 48.9595,49.467 C48.6744986,49.0743314 48.4591674,48.6278358 48.3135,48.1275 C48.1678326,47.6271642 48.095,47.1173359 48.095,46.598 C48.095,46.0786641 48.1678326,45.5688358 48.3135,45.0685 C48.4591674,44.5681642 48.6744986,44.1216686 48.9595,43.729 C49.2445014,43.3363314 49.6023312,43.0196679 50.033,42.779 C50.4636688,42.5383321 50.9639972,42.418 51.534,42.418 Z M65.613,42.418 C66.1830028,42.418 66.6833312,42.5383321 67.114,42.779 C67.5446688,43.0196679 67.9024986,43.3363314 68.1875,43.729 C68.4725014,44.1216686 68.6878326,44.5681642 68.8335,45.0685 C68.9791674,45.5688358 69.052,46.0786641 69.052,46.598 C69.052,47.1173359 68.9791674,47.6271642 68.8335,48.1275 C68.6878326,48.6278358 68.4725014,49.0743314 68.1875,49.467 C67.9024986,49.8596686 67.5446688,50.1763321 67.114,50.417 C66.6833312,50.6576679 66.1830028,50.778 65.613,50.778 C65.0429971,50.778 64.5426688,50.6576679 64.112,50.417 C63.6813312,50.1763321 63.3235014,49.8596686 63.0385,49.467 C62.7534986,49.0743314 62.5381674,48.6278358 62.3925,48.1275 C62.2468326,47.6271642 62.174,47.1173359 62.174,46.598 C62.174,46.0786641 62.2468326,45.5688358 62.3925,45.0685 C62.5381674,44.5681642 62.7534986,44.1216686 63.0385,43.729 C63.3235014,43.3363314 63.6813312,43.0196679 64.112,42.779 C64.5426688,42.5383321 65.0429971,42.418 65.613,42.418 Z" id="Combined-Shape"></path>
        </g>
    </g>
</svg>